<?xml version="1.0" standalone="no"?>
<!DOCTYPE svg PUBLIC "-//W3C//DTD SVG 20010904//EN"
 "http://www.w3.org/TR/2001/REC-SVG-20010904/DTD/svg10.dtd">
<svg version="1.0" xmlns="http://www.w3.org/2000/svg"
 width="905.000000pt" height="905.000000pt" viewBox="0 0 905.000000 905.000000"
 preserveAspectRatio="xMidYMid meet">
<metadata>
Created by potrace 1.11, written by Peter Selinger 2001-2013
</metadata>
<g transform="translate(0.000000,905.000000) scale(0.100000,-0.100000)"
fill="#000000" stroke="none">
<path d="M4259 8966 c-2 -2 -58 -7 -123 -10 -66 -4 -122 -9 -125 -11 -4 -1
-46 -6 -96 -10 -49 -4 -92 -8 -95 -10 -3 -1 -32 -6 -65 -10 -32 -3 -62 -8 -65
-10 -3 -1 -27 -5 -55 -9 -27 -3 -63 -8 -80 -11 -16 -3 -57 -10 -90 -16 -33 -6
-91 -17 -130 -24 -38 -8 -81 -16 -95 -19 -138 -26 -459 -102 -615 -146 -230
-64 -446 -323 -533 -640 -23 -80 -24 -88 -49 -220 -21 -114 -25 -497 -7 -640
7 -58 15 -132 19 -165 l6 -60 -63 -40 c-56 -36 -304 -217 -353 -257 -11 -10
-49 -40 -85 -68 -120 -94 -142 -115 -189 -175 -223 -282 -211 -710 26 -940 83
-81 308 -176 581 -246 85 -22 171 -42 191 -45 20 -3 52 -9 71 -14 19 -4 70
-13 113 -20 42 -7 77 -17 77 -23 0 -6 -5 -25 -12 -43 -22 -61 13 -93 145 -134
31 -10 60 -14 63 -9 3 5 1 9 -4 9 -18 0 -128 93 -138 117 -13 30 -7 63 11 63
7 0 18 7 26 16 10 13 10 20 -5 45 -13 21 -19 58 -22 122 -4 87 3 92 21 15 2
-10 8 -25 14 -35 14 -27 23 35 18 132 -6 118 14 157 26 49 7 -64 53 -147 122
-222 80 -86 106 -98 164 -78 49 17 84 10 133 -27 18 -13 51 -31 73 -39 21 -9
41 -20 42 -25 2 -6 -8 -25 -23 -42 -31 -37 -34 -73 -9 -101 18 -19 35 -17 93
12 34 18 47 -1 29 -43 -20 -47 -46 -67 -121 -95 l-66 -24 -36 25 c-24 16 -51
25 -75 25 -34 0 -39 -3 -39 -24 0 -36 37 -76 70 -76 35 0 38 -4 46 -71 3 -30
14 -71 24 -91 14 -31 15 -40 4 -49 -28 -23 -70 94 -44 126 10 12 10 15 -4 15
-22 0 -143 -34 -188 -53 -121 -51 -249 -186 -359 -382 -107 -189 -147 -330
-154 -547 -5 -162 23 -245 134 -392 29 -37 62 -89 76 -116 26 -51 66 -90 124
-119 59 -31 167 -124 246 -212 126 -141 209 -238 270 -314 83 -105 114 -131
129 -107 6 10 8 7 -152 285 -164 286 -213 407 -298 732 -62 242 -62 360 2 547
25 74 39 98 58 98 8 0 11 -41 11 -132 0 -156 6 -205 39 -320 34 -115 59 -178
113 -278 55 -102 174 -281 213 -320 3 -3 30 -34 60 -70 96 -114 336 -332 402
-366 53 -27 76 -31 60 -11 -23 28 -18 60 14 79 31 18 32 18 97 -11 35 -16 68
-35 73 -42 4 -8 7 -37 7 -66 -2 -74 15 -91 97 -98 36 -3 76 -7 90 -10 104 -22
159 -25 218 -13 95 20 351 148 437 220 11 9 55 44 98 78 75 60 95 89 83 127
-7 23 6 38 79 92 33 25 95 73 138 108 153 124 161 122 107 -28 -62 -171 -82
-221 -168 -409 -33 -73 -71 -123 -173 -227 -131 -134 -217 -246 -224 -292 -12
-74 -15 -79 -45 -89 -16 -6 -30 -15 -31 -19 -1 -4 -2 -24 -3 -43 -1 -19 -7
-43 -13 -54 -9 -17 -11 -16 -30 10 -11 16 -25 45 -32 64 -7 19 -17 44 -21 55
-4 11 -24 63 -44 116 -63 166 -120 233 -209 245 -65 9 -116 -2 -111 -24 7 -26
-17 -51 -56 -56 -19 -2 -54 -7 -78 -11 -41 -7 -43 -7 -55 24 -7 18 -18 31 -27
29 -21 -3 -60 12 -60 22 0 14 -37 31 -53 25 -7 -3 -24 -32 -37 -63 -13 -31
-52 -113 -87 -180 -55 -108 -72 -152 -60 -152 2 0 18 7 36 16 39 19 85 13 117
-17 18 -17 25 -18 47 -8 38 17 57 -1 48 -44 -4 -18 -9 -65 -10 -105 -1 -40 -4
-83 -7 -95 -2 -12 -7 -36 -10 -54 -6 -31 -37 -73 -54 -73 -21 0 -91 88 -122
151 -22 46 -39 69 -51 69 -16 0 -16 2 -1 25 14 21 15 32 6 67 -6 23 -9 45 -6
50 13 21 -15 4 -45 -27 -38 -40 -46 -38 -115 25 -23 20 -56 45 -75 55 -18 9
-53 35 -77 57 -38 35 -45 38 -65 28 -20 -11 -21 -10 -17 14 5 26 -14 37 -27
16 -11 -19 -25 -10 -25 15 0 22 -3 24 -19 15 -28 -15 -31 -13 -31 18 0 20 -3
23 -9 13 -8 -12 -14 -12 -43 0 -18 7 -39 12 -47 11 -10 -3 -12 3 -7 22 7 28
-10 37 -20 11 -4 -8 -13 -15 -21 -15 -11 0 -13 7 -8 30 8 34 -4 40 -23 10 -17
-28 -35 -25 -30 5 6 28 -9 33 -27 8 -15 -21 -35 -9 -28 17 6 23 -9 26 -27 5
-16 -19 -30 -10 -23 15 6 22 -22 30 -29 8 -8 -23 -28 3 -22 28 8 30 -9 31 -28
2 l-15 -23 -7 33 c-9 36 -15 38 -57 17 -27 -15 -30 -14 -35 2 -12 39 -23 49
-73 67 -43 16 -54 17 -61 6 -13 -20 0 -40 25 -40 21 0 72 -47 62 -57 -6 -5
-140 43 -195 71 -30 15 -57 25 -60 22 -12 -12 19 -56 57 -81 52 -35 56 -50 20
-77 -128 -98 -355 -314 -428 -406 -20 -26 -44 -45 -62 -49 -15 -3 -45 -20 -66
-37 -53 -44 -96 -69 -178 -101 -38 -15 -95 -41 -127 -56 l-56 -28 0 -156 c0
-85 2 -155 5 -155 2 0 21 16 41 36 20 19 86 66 147 104 69 43 149 104 210 162
122 114 146 131 221 159 32 12 78 35 101 51 57 39 113 57 187 62 116 7 172 29
254 100 72 62 110 71 194 47 132 -38 242 -98 403 -222 72 -55 153 -98 234
-123 70 -21 82 -22 92 -10 10 12 8 22 -7 49 -49 85 -113 151 -226 232 -43 30
-78 56 -78 58 0 9 158 -80 206 -116 117 -86 210 -203 288 -364 60 -123 88
-200 117 -320 10 -45 28 -108 39 -141 12 -32 23 -81 25 -109 10 -100 17 -142
42 -250 13 -60 27 -132 30 -160 5 -55 21 -115 31 -115 3 0 15 9 26 19 12 11
33 22 47 26 22 5 30 1 46 -22 34 -48 34 -51 8 -79 -29 -31 -32 -62 -7 -71 24
-9 32 -23 32 -63 0 -34 14 -69 23 -60 3 3 8 41 11 85 4 44 8 91 10 105 3 14 7
45 11 70 3 25 8 54 9 65 10 58 27 153 31 175 18 89 37 189 41 215 56 353 111
523 221 682 93 133 227 242 397 322 110 52 160 61 62 11 -96 -49 -166 -94
-229 -150 -51 -45 -73 -80 -81 -126 -11 -62 6 -58 115 24 196 148 273 194 404
241 80 29 239 34 274 9 17 -12 147 -129 247 -223 29 -27 61 -75 95 -145 44
-87 66 -118 129 -180 49 -49 100 -87 145 -110 138 -71 313 -206 433 -334 69
-74 79 -81 97 -66 8 7 15 21 15 31 0 10 9 24 20 31 11 7 20 16 20 21 0 15 -63
67 -245 205 -190 143 -307 252 -391 365 -46 61 -69 101 -162 267 -132 237
-159 287 -165 302 -7 20 16 47 41 50 27 2 36 4 61 12 25 9 25 9 -10 25 -24 11
-37 26 -44 49 -11 40 -34 47 -119 39 -69 -7 -130 -29 -246 -87 -79 -40 -117
-53 -70 -24 l25 15 -32 -5 c-18 -3 -82 -30 -143 -60 -61 -30 -112 -54 -113
-54 -6 3 -85 -43 -107 -62 -15 -13 -34 -20 -47 -17 -14 3 -23 -1 -23 -9 0 -7
-9 -16 -20 -19 -11 -3 -27 -13 -35 -21 -13 -14 -16 -14 -22 2 -6 17 18 41 77
74 109 62 133 96 29 41 -75 -39 -162 -102 -211 -154 -21 -21 -38 -35 -38 -32
0 25 152 251 317 471 128 171 156 204 176 204 7 0 30 15 50 34 29 26 37 41 37
68 0 36 9 52 148 268 58 91 87 127 97 123 8 -3 15 -16 15 -29 0 -36 24 -87 56
-119 38 -38 41 -22 15 79 -27 105 -21 123 53 165 30 17 57 37 59 44 3 7 -11
26 -31 43 l-36 31 24 19 c12 10 38 32 56 48 29 23 34 25 34 10 0 -9 -7 -25
-16 -35 -9 -10 -13 -23 -9 -28 8 -14 35 -14 35 0 0 8 6 7 17 -2 14 -12 16 -12
11 2 -9 23 5 39 37 45 16 3 32 7 37 10 16 10 8 43 -13 54 -20 11 -20 12 5 37
17 17 26 37 26 57 0 49 -16 58 -60 36 -43 -22 -49 -17 -45 42 2 35 -14 56 -34
44 -6 -4 0 -76 11 -136 2 -8 -1 -17 -7 -20 -5 -2 -26 32 -45 76 -37 86 -68
139 -77 131 -2 -3 -7 -33 -9 -68 -8 -100 -33 -124 -73 -73 -17 21 -19 35 -14
72 5 38 4 44 -9 39 -20 -7 -31 28 -17 54 18 35 6 69 -26 69 -6 0 -20 -73 -16
-84 1 -5 -3 -12 -9 -16 -7 -4 -15 -22 -19 -40 -8 -43 -28 -49 -41 -14 -10 25
-12 26 -29 10 -9 -9 -23 -16 -29 -16 -15 0 -25 35 -18 68 14 61 14 91 1 102
-18 15 -30 -20 -27 -82 3 -52 -6 -62 -54 -60 -46 2 -68 -22 -60 -67 3 -19 13
-43 23 -53 16 -15 23 -16 50 -6 76 29 36 -27 -56 -80 l-40 -22 -17 26 c-14 21
-15 30 -6 45 18 28 -5 33 -23 5 -16 -24 -70 -50 -85 -41 -9 6 -6 48 8 98 9 32
8 43 -8 70 -17 31 -19 46 -5 78 15 38 -82 26 -110 -14 -23 -34 -18 -40 15 -16
31 24 37 23 40 -1 5 -30 0 -50 -12 -50 -6 0 -19 -7 -29 -16 -22 -20 -43 -9
-36 18 3 11 2 30 -3 43 -7 18 -4 27 16 44 31 27 28 52 -8 65 -21 7 -32 6 -45
-6 -10 -9 -28 -19 -41 -23 -23 -7 -23 -5 -21 51 3 64 -9 79 -35 42 -15 -22
-16 -21 -16 32 0 81 -11 90 -72 65 -14 -5 -18 -2 -18 13 0 24 46 82 64 82 7 0
21 9 30 19 16 18 16 20 -5 34 -25 18 -28 55 -6 112 17 45 12 69 -12 59 -47
-19 -51 -18 -41 17 6 19 10 35 10 35 0 1 -14 7 -31 13 -34 12 -59 1 -59 -24 0
-18 -31 -28 -44 -15 -8 8 -5 17 12 30 24 20 29 40 10 40 -6 0 -31 -9 -55 -21
-55 -26 -106 -30 -111 -8 -1 9 15 40 38 70 22 29 40 62 40 72 0 60 206 337
251 337 6 0 6 -7 0 -17 -5 -10 -17 -58 -26 -108 -9 -49 -23 -103 -31 -119 -17
-34 -17 -33 21 -38 27 -3 33 2 56 45 14 27 53 80 85 119 112 134 128 182 94
289 -29 91 -44 120 -82 155 -40 38 -94 67 -170 89 -66 19 -103 12 -125 -22
-18 -27 -27 -22 -37 19 -5 21 -1 30 15 42 l22 15 -35 35 c-19 19 -53 39 -75
45 -43 12 -46 20 -24 59 17 33 5 40 -20 13 -33 -35 -33 -18 -1 50 17 35 28 67
25 72 -3 5 -26 -23 -51 -61 -25 -39 -53 -73 -61 -76 -9 -3 -22 -9 -28 -12 -18
-8 7 59 53 144 22 42 28 58 15 43 -12 -13 -31 -25 -44 -26 -12 -1 -25 -3 -29
-4 -4 0 -11 -16 -16 -33 l-8 -33 -6 27 c-8 40 17 88 52 101 33 13 35 30 3 35
-27 4 -83 -44 -83 -71 0 -12 -5 -29 -10 -37 -7 -11 -9 -5 -7 20 2 23 12 45 30
62 15 15 27 32 27 38 0 17 -36 11 -55 -10 -14 -15 -21 -17 -26 -8 -12 19 8 46
49 67 21 11 87 53 147 93 61 41 138 87 173 103 34 16 62 33 62 38 0 5 -7 6
-15 3 -37 -14 -153 -46 -183 -50 -45 -6 -37 12 19 44 l44 25 -60 5 c-48 4 -61
9 -63 24 -6 27 10 37 43 27 19 -5 53 -3 90 5 77 16 75 16 69 -1 -3 -8 -14 -17
-25 -20 -20 -7 -27 -35 -9 -35 6 0 22 7 35 16 15 10 42 15 72 13 71 -3 71 -2
84 42 14 44 39 64 69 54 29 -9 87 20 104 54 9 16 16 48 16 71 0 38 2 42 43 59
42 19 71 13 61 -12 -7 -20 42 -112 70 -130 29 -19 91 -23 102 -6 4 8 12 3 21
-14 16 -31 69 -45 103 -27 19 10 22 18 17 50 l-5 38 39 -26 c46 -32 55 -57 40
-117 -14 -55 -14 -120 -1 -145 6 -10 11 -32 12 -47 1 -15 13 -42 26 -60 15
-20 25 -51 29 -86 5 -46 1 -62 -22 -108 -32 -65 -72 -119 -87 -119 -6 0 -26
-11 -44 -25 -34 -26 -37 -43 -14 -85 8 -15 8 -35 1 -73 -6 -29 -14 -88 -17
-132 -3 -43 -7 -82 -9 -85 -7 -11 26 -50 42 -50 8 0 28 8 44 17 34 20 47 12
53 -35 8 -72 64 -83 105 -20 13 21 30 38 36 38 17 0 39 -27 73 -90 23 -43 34
-54 51 -53 19 3 21 -2 21 -43 0 -41 -24 -104 -40 -104 -3 0 -6 10 -7 23 -2 27
-49 69 -72 65 -9 -2 -18 -14 -19 -28 -2 -14 -7 -29 -12 -34 -14 -15 -55 39
-74 99 -15 49 -20 55 -38 49 -11 -3 -28 -7 -37 -9 -11 -1 -18 -16 -22 -52 -9
-70 -44 -128 -91 -154 -15 -8 -18 -6 -18 11 0 15 7 20 24 20 31 0 37 10 41 69
3 44 -11 89 -21 66 -16 -37 -51 -89 -61 -93 -17 -5 -16 23 2 58 18 35 8 45
-23 20 -32 -26 -62 -98 -52 -125 14 -36 -2 -47 -58 -42 -58 5 -103 -12 -121
-46 -18 -36 -40 -105 -34 -110 2 -3 20 -3 38 0 25 4 39 0 55 -15 33 -31 66
-32 116 -6 55 29 68 30 145 4 48 -17 84 -21 165 -19 135 2 142 20 14 34 -30 3
-70 11 -89 16 -51 17 -19 28 68 23 42 -2 126 -6 186 -9 61 -2 121 -7 135 -10
73 -16 186 -3 290 33 57 19 74 34 66 60 -8 25 -93 59 -109 43 -6 -6 -21 -11
-33 -11 -33 0 -37 34 -7 62 47 43 48 56 9 90 -43 37 -44 44 -12 69 14 11 34
35 46 55 12 19 24 33 27 30 3 -2 15 -49 27 -103 26 -121 43 -131 80 -51 28 62
41 107 37 128 -3 14 -9 30 -47 118 -7 17 -18 32 -24 32 -5 0 -10 6 -10 14 0 8
21 21 48 30 30 10 57 28 70 45 l21 29 -101 73 c-56 39 -122 78 -146 86 -59 17
-155 17 -235 -2 -58 -13 -116 -13 -192 0 -11 2 -30 4 -42 4 -30 1 -63 35 -63
65 0 14 -7 32 -15 40 -36 36 31 146 88 146 39 0 141 -56 180 -99 23 -25 47
-41 60 -41 50 0 102 65 86 108 -5 12 -12 22 -17 22 -11 0 -28 40 -37 85 -6 30
-5 31 35 27 59 -6 80 15 70 71 -5 23 -10 70 -13 103 -6 70 -20 100 -89 196
-43 59 -49 74 -47 111 1 23 2 86 3 141 1 82 -2 101 -16 109 -12 8 -23 8 -41
-2 -22 -12 -29 -9 -86 34 -71 54 -81 69 -81 123 0 22 -6 44 -13 50 -7 6 -62
12 -125 13 l-112 1 0 31 0 31 -29 -28 c-27 -26 -32 -27 -87 -20 -33 4 -70 8
-84 9 -39 3 -40 3 -40 33 0 38 17 52 65 52 22 0 58 9 80 19 39 18 41 18 77 0
42 -21 72 -15 108 21 14 14 37 22 66 24 29 2 52 10 67 24 42 40 131 20 178
-40 17 -21 36 -38 41 -38 6 0 27 12 45 26 31 23 41 26 91 21 31 -3 68 -8 82
-11 14 -3 48 -9 75 -12 28 -3 57 -12 66 -20 10 -9 29 -13 45 -11 35 5 54 -8
54 -38 0 -16 11 -30 36 -44 30 -18 35 -25 32 -54 -3 -29 -7 -32 -43 -38 -50
-7 -229 -125 -262 -174 -88 -129 -65 -262 50 -290 21 -6 26 -3 29 17 5 37 35
35 43 -4 13 -69 36 -96 111 -134 83 -42 119 -41 130 2 l6 25 12 -22 c6 -12 16
-24 21 -26 6 -2 73 35 148 82 76 47 164 99 197 115 l60 30 77 -21 c191 -53
421 -17 573 90 56 39 213 202 257 267 91 135 124 231 119 358 -4 127 -54 233
-158 337 -129 129 -359 221 -803 322 -38 9 -117 28 -175 41 -91 21 -144 32
-258 51 -12 2 -61 7 -109 11 -48 3 -94 8 -102 9 -9 2 -36 4 -61 4 l-45 1 -38
103 c-54 147 -164 361 -261 507 -280 419 -598 642 -1001 701 -74 10 -567 24
-576 15z m946 -2571 c11 -1 25 -3 30 -4 26 -4 -35 -24 -137 -45 -175 -36 -247
-77 -416 -236 -94 -89 -113 -100 -170 -100 l-37 1 36 19 c39 21 70 51 141 140
50 62 108 100 155 100 18 0 36 6 40 13 12 20 72 62 138 97 62 33 85 34 220 15z
m1203 -85 c2 -12 -7 -14 -45 -11 -45 3 -46 4 -22 17 30 17 63 14 67 -6z
m-2578 -1105 c0 -4 -7 -19 -14 -34 -13 -24 -13 -31 0 -49 14 -20 10 -52 -7
-52 -5 0 -9 -7 -9 -15 0 -17 25 -20 35 -5 4 7 13 6 26 -1 29 -15 45 -6 53 31
6 33 12 34 59 15 13 -5 17 -2 17 14 0 23 1 24 24 15 12 -5 16 -20 16 -61 0
-49 2 -54 16 -42 8 7 24 29 35 48 12 22 17 27 13 12 -10 -40 -7 -88 10 -118 8
-15 20 -38 27 -50 12 -22 7 -53 -9 -53 -4 0 -12 12 -18 26 -8 22 -11 24 -26
12 -14 -10 -16 -22 -12 -50 4 -21 10 -36 13 -33 4 2 13 0 20 -4 19 -12 -47
-94 -87 -106 -29 -10 -30 -11 -12 -23 31 -19 49 -14 63 16 16 36 25 42 68 40
20 -1 41 2 47 6 7 4 12 3 12 -2 0 -6 -15 -19 -34 -30 -19 -11 -52 -44 -74 -74
-78 -104 -88 -111 -136 -104 -47 7 -71 -9 -78 -53 -4 -34 -24 -37 -32 -5 -10
37 -36 74 -52 74 -27 0 -25 -28 5 -90 17 -34 31 -75 31 -91 0 -31 -31 -66 -67
-75 -33 -9 -29 -18 19 -39 59 -26 96 -61 81 -76 -9 -9 -20 -6 -45 13 -48 37
-72 42 -92 20 -16 -18 -15 -20 6 -34 13 -8 34 -19 47 -23 21 -6 22 -9 8 -17
-23 -12 -77 14 -101 49 -30 45 -86 84 -110 77 -12 -4 -27 -7 -33 -7 -7 0 -20
-9 -30 -19 -24 -27 -5 -42 39 -30 42 11 73 -2 106 -47 27 -37 28 -58 3 -66
-21 -6 -34 -31 -25 -46 3 -5 23 -8 45 -5 36 4 39 2 39 -21 0 -16 7 -27 20 -30
11 -3 20 -7 20 -10 0 -2 -21 -25 -46 -50 -32 -33 -48 -43 -53 -34 -5 7 -28 17
-52 22 -53 12 -65 22 -90 72 -15 28 -32 44 -61 55 -38 15 -40 18 -35 51 3 20
8 44 12 53 5 13 -1 22 -23 35 -26 15 -30 22 -25 45 5 24 2 28 -17 28 -18 0
-21 4 -18 25 3 15 -1 30 -12 40 -15 14 -19 13 -43 -5 -47 -37 -53 -16 -6 27
50 46 53 57 31 121 -11 31 -23 77 -26 101 -3 24 -15 77 -26 118 -12 40 -18 78
-15 83 4 6 21 -2 42 -20 36 -32 55 -33 98 -4 26 18 59 18 75 -1 10 -12 10 -21
0 -44 -6 -16 -9 -43 -5 -62 4 -19 7 -49 8 -68 2 -33 4 -34 41 -35 31 -1 40 3
42 17 3 25 7 28 39 31 25 3 26 2 20 -35 -6 -34 -4 -39 13 -39 10 0 29 9 42 20
27 23 32 24 47 9 8 -8 18 2 38 35 21 36 41 54 84 76 32 15 63 35 70 44 12 14
10 16 -16 16 -16 0 -33 -4 -38 -9 -6 -5 -19 -12 -31 -15 -16 -5 -23 0 -33 21
-12 27 -13 27 -26 9 -10 -13 -11 -24 -5 -37 16 -29 12 -37 -22 -45 -59 -14
-68 -12 -57 7 5 10 13 21 19 24 13 8 30 73 23 91 -8 22 -43 18 -43 -5 0 -36
-12 -50 -46 -57 -35 -6 -64 7 -64 30 0 7 21 22 47 35 50 24 46 41 -9 41 -35 0
-80 20 -75 34 2 6 34 17 71 24 71 14 96 7 96 -26 0 -13 2 -13 18 1 10 10 27
17 38 17 11 0 26 8 34 18 64 75 77 103 35 76 -13 -8 -29 -13 -35 -9 -6 4 -21
0 -34 -8 -40 -27 -94 -32 -116 -12 -27 24 -25 59 3 77 33 23 86 78 113 120 30
47 30 50 -1 42 -31 -8 -33 11 -3 27 37 20 88 33 88 24z m1074 -309 c-6 -17
-34 -30 -34 -16 0 5 8 14 18 19 22 13 22 13 16 -3z m-632 -200 c11 -16 -10
-43 -37 -48 -20 -4 -25 -1 -25 16 0 38 42 59 62 32z m98 -156 c-11 -16 -23
-46 -24 -65 -2 -20 -6 -38 -8 -40 -10 -10 -86 -20 -108 -14 -14 3 -35 4 -47 2
-18 -4 -23 -1 -23 15 0 11 7 25 16 33 14 11 14 13 -1 21 -8 5 -13 13 -10 19
11 17 53 9 84 -17 25 -21 34 -23 51 -14 22 12 26 30 9 47 -8 8 -3 13 20 18 17
3 33 11 36 16 4 5 11 9 16 9 6 0 1 -13 -11 -30z m-1326 -23 c6 -34 14 -47 30
-47 14 0 36 41 36 65 0 16 18 19 37 7 7 -5 22 -44 33 -87 11 -43 27 -89 35
-102 19 -28 19 -47 0 -63 -12 -10 -12 -14 -1 -26 8 -7 16 -19 18 -26 3 -9 12
-8 32 5 15 10 37 17 49 15 20 -3 19 -5 -11 -39 -18 -20 -43 -40 -57 -43 -24
-6 -24 -7 -7 -35 9 -16 20 -27 24 -25 12 8 9 -11 -3 -23 -15 -15 -36 -109 -35
-158 1 -34 5 -41 24 -43 29 -4 28 -15 -3 -32 -34 -18 -31 -44 9 -80 39 -36 49
-71 29 -100 -19 -26 -19 -66 -2 -113 13 -38 35 -49 45 -23 3 8 12 17 20 20 11
4 13 -2 9 -27 -6 -39 22 -89 65 -116 31 -19 32 -19 147 5 19 4 27 -6 54 -63
40 -85 41 -114 3 -154 l-29 -31 30 3 c50 4 61 0 73 -25 14 -30 6 -38 -23 -24
-39 18 -56 5 -44 -34 21 -67 16 -90 -31 -140 -39 -42 -42 -51 -44 -113 -1 -26
-5 -30 -25 -27 -72 8 -193 102 -263 205 -79 116 -128 263 -128 381 0 23 -11
76 -25 116 -14 40 -25 82 -25 91 0 25 24 14 38 -17 18 -38 35 -30 28 14 -3 26
0 46 10 60 18 26 34 29 34 6 0 -26 25 -9 28 19 3 21 -1 27 -16 27 -22 0 -36
15 -62 64 -17 34 -17 36 2 66 23 39 17 50 -28 50 -42 0 -51 19 -48 101 2 57
17 99 34 99 6 0 10 7 10 15 0 17 -25 20 -35 5 -11 -18 -24 -11 -31 18 -4 15
-15 43 -24 62 -10 20 -29 70 -43 112 l-25 77 29 71 c42 103 44 106 53 57z
m1421 -7 c-18 -35 -19 -63 -3 -106 15 -43 1 -74 -45 -102 -42 -25 -50 -19 -72
54 -13 43 -13 51 1 71 8 13 18 23 23 23 5 0 9 6 8 13 -2 54 19 74 81 76 22 1
22 0 7 -29z m-408 -17 c10 -51 9 -53 -13 -92 -43 -76 -77 -89 -127 -48 -39 31
-28 50 43 73 45 14 60 24 65 42 3 13 3 27 0 32 -4 6 -3 15 0 20 12 20 24 9 32
-27z m123 -139 c0 -3 -5 -14 -10 -25 -8 -14 -21 -19 -55 -19 -46 0 -58 13 -33
38 12 12 98 17 98 6z m100 -69 c-13 -14 -41 -33 -62 -42 -31 -14 -38 -22 -38
-46 0 -26 -3 -28 -27 -23 -16 3 -45 8 -65 12 -47 8 -50 22 -4 22 32 0 95 32
129 66 17 18 54 34 76 35 10 1 7 -7 -9 -24z m104 -130 c8 -22 -26 -40 -73 -39
-78 3 -81 3 -81 23 0 25 12 29 86 30 46 1 63 -3 68 -14z m-306 -120 c10 -10
-19 -23 -39 -18 -10 3 -24 12 -31 21 -12 14 -9 15 26 9 21 -3 41 -9 44 -12z
m512 -134 c-2 -25 -41 -78 -68 -94 -45 -27 -164 -30 -188 -5 -17 16 -16 18 6
26 14 5 36 4 58 -4 37 -12 84 -9 116 8 14 8 17 17 12 46 -7 49 8 66 40 45 13
-8 24 -18 24 -22z m-978 -43 c4 -7 6 -19 3 -26 -3 -8 -5 -19 -5 -25 0 -7 -5
-4 -11 6 -8 13 -18 17 -33 13 -15 -4 -28 1 -40 16 -18 20 -18 22 -2 34 20 14
74 3 88 -18z m-491 -91 c-1 -23 -4 -43 -5 -45 -7 -6 -35 11 -40 24 -9 24 28
83 43 68 3 -3 4 -24 2 -47z m662 -12 c17 -19 37 -35 44 -35 20 0 53 -37 53
-60 0 -19 -2 -19 -22 -6 -13 8 -58 26 -100 39 -65 21 -79 23 -89 11 -15 -18
-33 -18 -49 1 -7 8 -8 15 -3 15 6 0 30 16 54 35 24 19 52 35 62 35 10 0 33
-16 50 -35z m1122 -74 c-8 -16 -20 -35 -27 -43 -8 -7 -24 -26 -37 -43 -18 -23
-22 -25 -17 -9 4 15 2 24 -9 27 -17 7 -9 37 10 37 8 0 20 6 27 13 12 12 60 45
66 46 1 1 -4 -12 -13 -28z m-1132 -34 c60 -21 63 -31 20 -66 -20 -17 -46 -31
-56 -31 -10 0 -20 -7 -24 -16 -6 -17 13 -87 34 -121 21 -36 19 -67 -7 -104
l-25 -34 -7 65 c-3 36 -11 80 -17 99 -22 72 -23 106 -1 134 12 15 29 27 38 28
9 0 -1 8 -23 18 -36 16 -38 18 -20 29 26 15 42 15 88 -1z m1747 -63 c0 -12
-33 -104 -37 -104 -5 0 1 40 12 83 6 23 25 39 25 21z m-1725 -118 c0 -38 -18
-44 -33 -11 -14 31 -7 47 16 43 11 -2 17 -13 17 -32z m1620 -113 c-8 -59 -19
-72 -35 -43 -10 18 -17 21 -46 15 -30 -5 -34 -3 -34 14 0 26 51 53 114 60 4 1
5 -20 1 -46z m-1033 -1503 c22 -31 16 -53 -18 -69 -31 -14 -30 -14 -48 4 -26
26 -1 99 32 93 8 -2 23 -14 34 -28z m-322 -124 c0 -14 4 -27 9 -30 5 -3 11
-15 14 -26 5 -19 4 -19 -25 -4 -47 24 -59 84 -17 84 13 0 19 -7 19 -24z"/>
<path d="M3425 4340 c-9 -14 45 -59 73 -60 17 0 22 6 22 25 0 19 -7 26 -27 31
-16 3 -35 8 -45 10 -9 3 -19 0 -23 -6z"/>
<path d="M5418 4123 c-37 -20 -66 -38 -64 -42 3 -4 22 -8 44 -9 41 -3 58 10
80 61 6 15 11 26 9 26 -1 -1 -32 -17 -69 -36z"/>
<path d="M5226 3911 c-8 -12 8 -54 25 -67 48 -38 79 -10 35 31 -14 13 -26 29
-26 35 0 12 -27 13 -34 1z"/>
<path d="M3465 695 c-5 -2 -22 -6 -37 -9 -18 -4 -28 -13 -28 -25 0 -26 14 -35
93 -62 57 -19 70 -21 77 -9 6 9 0 22 -18 41 -15 16 -35 37 -44 48 -18 21 -23
23 -43 16z"/>
<path d="M3273 489 c-39 -14 -25 -51 46 -124 50 -52 143 -101 219 -115 46 -8
59 -7 93 10 29 15 39 27 39 44 0 33 -17 43 -92 55 -110 18 -184 50 -246 105
-30 27 -41 32 -59 25z"/>
<path d="M3901 316 c-16 -40 44 -239 73 -244 38 -8 64 45 26 55 -24 6 -28 19
-35 108 -3 39 -8 78 -11 88 -8 25 -43 21 -53 -7z"/>
</g>
</svg>
